<svg width="830" height="197" viewBox="0 0 830 197" fill="none" xmlns="http://www.w3.org/2000/svg">
  <path d="M47.7743 39.5373C56.9862 39.5373 64.6301 42.5752 70.706 48.6511C76.7819 54.7271 79.8199 62.3219 79.8199 71.4358C79.8199 80.5497 76.7819 88.1446 70.706 94.2205C64.6301 100.198 56.9862 103.187 47.7743 103.187H20.5797V142.436H12.7888V39.5373H47.7743ZM47.7743 95.8375C54.8302 95.8375 60.6121 93.5345 65.1201 88.9286C69.726 84.3226 72.029 78.4917 72.029 71.4358C72.029 64.2819 69.726 58.402 65.1201 53.7961C60.6121 49.1901 54.8302 46.8872 47.7743 46.8872H20.5797V95.8375H47.7743ZM183.164 128.618C172.874 138.908 160.33 144.053 145.533 144.053C130.735 144.053 118.191 138.908 107.901 128.618C97.6112 118.23 92.4663 105.686 92.4663 90.9865C92.4663 76.2868 97.6112 63.7919 107.901 53.5021C118.191 43.1142 130.735 37.9203 145.533 37.9203C160.33 37.9203 172.874 43.1142 183.164 53.5021C193.454 63.7919 198.599 76.2868 198.599 90.9865C198.599 105.686 193.454 118.23 183.164 128.618ZM113.34 123.326C122.16 132.146 132.891 136.556 145.533 136.556C158.174 136.556 168.856 132.146 177.578 123.326C186.398 114.408 190.808 103.628 190.808 90.9865C190.808 78.3447 186.398 67.6139 177.578 58.794C168.856 49.8761 158.174 45.4172 145.533 45.4172C132.891 45.4172 122.16 49.8761 113.34 58.794C104.618 67.6139 100.257 78.3447 100.257 90.9865C100.257 103.628 104.618 114.408 113.34 123.326ZM226.147 135.086H274.656V142.436H218.356V39.5373H226.147V135.086ZM368.347 128.618C358.057 138.908 345.513 144.053 330.715 144.053C315.918 144.053 303.374 138.908 293.084 128.618C282.794 118.23 277.649 105.686 277.649 90.9865C277.649 76.2868 282.794 63.7919 293.084 53.5021C303.374 43.1142 315.918 37.9203 330.715 37.9203C345.513 37.9203 358.057 43.1142 368.347 53.5021C378.637 63.7919 383.782 76.2868 383.782 90.9865C383.782 105.686 378.637 118.23 368.347 128.618ZM298.523 123.326C307.343 132.146 318.074 136.556 330.715 136.556C343.357 136.556 354.039 132.146 362.761 123.326C371.581 114.408 375.991 103.628 375.991 90.9865C375.991 78.3447 371.581 67.6139 362.761 58.794C354.039 49.8761 343.357 45.4172 330.715 45.4172C318.074 45.4172 307.343 49.8761 298.523 58.794C289.801 67.6139 285.44 78.3447 285.44 90.9865C285.44 103.628 289.801 114.408 298.523 123.326Z" fill="#C0D1E1"/>
  <path d="M588.977 133.937C581.685 130.492 566.166 121.499 570.653 120.351C575.141 119.203 580.376 116.716 573.084 114.228C565.979 111.741 558.499 102.939 563.735 102.939C568.97 102.939 570.84 100.834 562.613 98.5381C554.386 96.2419 544.289 89.9276 549.711 88.9709C555.134 88.2055 552.703 85.718 548.963 85.3354C545.224 84.9527 531.761 80.7431 536.809 77.6816C541.858 74.6201 539.053 72.898 535.314 74.2374C531.761 75.5768 519.42 78.447 511.754 72.7067C503.901 66.9663 482.959 52.2329 466.317 59.5039C449.676 66.775 437.896 69.6452 431.725 57.5905C434.343 57.3991 437.709 54.3376 428.921 53.3809C426.303 52.8069 426.677 49.9367 430.23 49.9367C433.782 49.9367 434.904 47.832 427.051 46.4925C419.198 44.9618 423.124 41.3263 425.742 41.3263C428.36 41.3263 431.725 38.0734 425.368 37.8821C419.011 37.6907 422.002 35.2033 423.685 34.8206C425.368 34.4379 426.303 32.5245 420.132 31.7591C416.767 31.185 414.71 30.611 416.019 29.2716C417.328 27.9322 414.523 27.7409 411.718 28.1235C411.905 26.4015 413.962 23.914 407.044 24.488C407.044 21.8092 408.914 18.1737 401.621 18.939C401.808 17.2169 401.247 17.0256 396.76 17.2169C396.76 15.6862 396.386 14.7295 391.337 15.1122C391.524 13.3901 390.215 13.3901 388.906 13.1987C389.841 10.9026 389.841 8.98916 384.419 10.5199C384.793 7.45841 380.866 4.20557 365.721 7.07572C359.924 7.8411 359.363 7.8411 357.493 5.35363C355.811 2.67481 352.632 -3.25684 352.071 2.29213C351.51 4.58825 348.892 5.16228 346.088 6.88438C343.283 8.60647 344.031 12.4333 339.73 9.56319C335.243 6.88438 336.364 -2.87416 333.373 3.24885C330.381 9.37185 335.43 16.6429 336.551 17.791C336.925 19.3217 337.112 20.2784 334.121 22.5746C331.129 24.8707 324.585 29.4629 326.267 38.6475C323.65 42.4743 314.862 52.9982 311.683 57.5905C308.504 62.1827 307.943 66.0096 310.374 68.8798C310.561 73.472 311.683 77.4902 319.723 78.447C321.78 79.595 325.333 78.6383 330.755 73.0893C336.177 67.5404 342.348 62.5654 348.705 61.9914C355.063 61.4174 355.25 57.9732 356.185 57.3991C357.119 56.8251 359.363 56.0597 361.607 61.4174C363.851 66.775 367.404 72.7067 369.834 75.3855C372.265 77.8729 369.647 86.6748 366.095 93.1805C362.542 99.6861 362.355 109.636 363.103 114.42C361.42 116.907 338.795 138.72 327.763 147.331C316.731 156.133 298.033 170.866 291.302 175.841C284.383 180.816 277.278 186.939 286.814 191.148C291.302 192.679 298.407 194.019 299.529 185.982C299.529 185.982 301.025 179.285 305.138 177.563C309.252 176.032 313.179 173.545 319.536 166.082C325.893 158.429 353.38 139.486 373.761 131.641C382.175 128.388 385.541 129.918 389.093 131.641C392.646 133.363 387.972 136.615 384.606 138.912C384.606 138.912 373.387 147.522 370.208 150.966C367.03 154.41 369.647 161.873 372.826 165.508C376.005 169.144 381.053 176.032 382.549 178.52C384.045 181.007 391.711 179.859 394.516 180.242C397.508 180.625 404.613 181.39 407.044 180.051C409.475 178.902 410.596 175.458 407.605 172.397C404.613 169.335 398.817 163.021 392.833 169.527C390.776 171.631 389.467 171.631 386.476 168.379C383.484 165.126 379.931 161.682 382.362 157.472C384.793 153.262 393.768 149.627 401.06 146.183C408.353 142.738 415.832 137.19 419.198 133.363C424.433 133.363 437.335 133.363 437.335 133.363C437.335 133.363 438.644 133.745 437.335 136.041C436.026 138.529 429.295 156.898 411.905 175.267C405.174 182.729 403.865 182.921 400.686 184.834C397.321 186.748 394.329 192.871 402.743 196.315C407.231 197.654 411.905 192.679 411.905 186.939C411.718 184.451 419.385 179.859 422.189 176.415C421.441 179.094 420.506 184.26 422.75 184.643C425.181 185.025 435.839 183.495 435.839 178.328C435.839 173.162 435.839 171.631 437.896 170.101C439.953 168.57 458.09 157.472 471.366 151.732C480.154 147.331 474.544 143.313 479.78 135.085C485.015 126.857 486.137 122.839 502.031 111.167C510.819 104.087 511.38 97.964 515.306 93.7545C519.233 89.3536 523.347 89.1622 525.59 95.2852C527.834 101.408 539.801 128.77 560.369 133.745C568.409 136.041 574.954 137.572 579.815 137.764C584.864 137.764 596.27 137.572 588.977 133.937ZM467.065 134.511C463.512 142.356 453.602 152.88 445.001 156.324C436.4 159.768 428.921 168.761 428.921 168.761C425.555 172.779 422.563 176.032 422.937 175.076C425.555 169.144 431.351 162.83 431.351 162.83C434.156 160.151 443.505 151.923 446.684 145.991C449.863 140.06 453.415 128.77 453.415 128.77C457.529 128.005 463.699 125.518 467.626 122.647C471.553 119.777 470.431 126.666 467.065 134.511Z" fill="url(#paint0_linear_1197_29501)"/>
  <path d="M425.063 145.045L386.696 42.1462H395.222L429.179 134.902L463.282 42.1462H471.661L433.294 145.045H425.063ZM486.577 42.1462H494.368V145.045H486.577V42.1462ZM527.672 137.695H576.181V145.045H519.881V42.1462H527.672V137.695ZM600.166 137.695H648.675V145.045H592.375V42.1462H600.166V137.695ZM736.976 145.045L726.98 118.879H675.384L665.388 145.045H657.156L697.14 42.1462H705.372L745.208 145.045H736.976ZM678.324 111.529H724.187L701.256 51.701L678.324 111.529ZM788.775 146.662C779.269 146.662 771.184 144.506 764.52 140.194C757.954 135.784 753.495 129.855 751.143 122.407L757.905 118.438C759.767 124.808 763.295 129.855 768.489 133.579C773.781 137.303 780.543 139.165 788.775 139.165C797.104 139.165 803.474 137.254 807.884 133.432C812.392 129.61 814.646 124.661 814.646 118.585C814.646 112.901 812.49 108.54 808.178 105.502C803.866 102.464 797.153 99.4753 788.04 96.5354C784.708 95.4574 782.258 94.6734 780.69 94.1834C779.22 93.5954 777.064 92.7624 774.222 91.6845C771.38 90.5085 769.273 89.4795 767.901 88.5975C766.529 87.7155 764.863 86.5395 762.903 85.0696C761.041 83.5996 759.669 82.1296 758.787 80.6596C757.905 79.0916 757.121 77.2787 756.435 75.2207C755.749 73.0647 755.406 70.7128 755.406 68.1648C755.406 59.8349 758.346 53.171 764.226 48.1731C770.204 43.0771 777.652 40.5292 786.57 40.5292C794.605 40.5292 801.465 42.5382 807.149 46.5561C812.833 50.574 816.998 55.768 819.644 62.1379L813.029 65.8128C808.129 53.955 799.309 48.0261 786.57 48.0261C779.514 48.0261 773.879 49.888 769.665 53.612C765.451 57.3359 763.344 62.0889 763.344 67.8708C763.344 73.4567 765.304 77.6217 769.224 80.3656C773.144 83.1096 779.563 85.9515 788.481 88.8915C794.164 90.7535 798.574 92.3705 801.71 93.7424C804.944 95.0164 808.374 96.8294 812 99.1814C815.724 101.435 818.419 104.179 820.085 107.413C821.751 110.549 822.584 114.224 822.584 118.438C822.584 126.964 819.497 133.824 813.323 139.018C807.149 144.114 798.966 146.662 788.775 146.662Z" fill="#C0D1E1"/>
  <defs>
    <linearGradient id="paint0_linear_1197_29501" x1="282.195" y1="130.009" x2="591.347" y2="130.009" gradientUnits="userSpaceOnUse">
      <stop stop-color="#353D47"/>
      <stop offset="1"/>
    </linearGradient>
  </defs>
</svg>
